<svg width="35" height="35" viewBox="0 0 21 20" fill="none" xmlns="http://www.w3.org/2000/svg">
<path d="M20.668 10C20.668 8.61907 20.6804 7.25064 20.6034 5.87221C20.5265 4.27113 20.1639 2.85017 19.0017 1.67938C17.8371 0.506085 16.4291 0.14334 14.8398 0.065788C13.4691 -0.0117644 12.1107 0.000744113 10.7424 0.000744113C9.37169 0.000744113 8.01336 -0.0117644 6.64509 0.065788C5.05581 0.14334 3.64532 0.508587 2.48316 1.67938C1.31852 2.85267 0.958446 4.27113 0.881465 5.87221C0.804484 7.25314 0.816901 8.62157 0.816901 10C0.816901 11.3784 0.804484 12.7494 0.881465 14.1278C0.958446 15.7289 1.321 17.1498 2.48316 18.3206C3.6478 19.4939 5.05581 19.8567 6.64509 19.9342C8.01584 20.0118 9.37418 19.9993 10.7424 19.9993C12.1132 19.9993 13.4715 20.0118 14.8398 19.9342C16.4291 19.8567 17.8396 19.4914 19.0017 18.3206C20.1664 17.1473 20.5265 15.7289 20.6034 14.1278C20.6829 12.7494 20.668 11.3809 20.668 10Z" fill="#D47F7F"/>
<path d="M10.7081 15.1923C7.87497 15.1923 5.5885 12.8889 5.5885 10.0348C5.5885 7.18068 7.87497 4.87728 10.7081 4.87728C13.5412 4.87728 15.8277 7.18068 15.8277 10.0348C15.8277 12.8889 13.5412 15.1923 10.7081 15.1923ZM16.0374 5.87056C15.3759 5.87056 14.8417 5.33243 14.8417 4.66605C14.8417 3.99967 15.3759 3.46154 16.0374 3.46154C16.6988 3.46154 17.233 3.99967 17.233 4.66605C17.2332 4.82428 17.2024 4.981 17.1424 5.12723C17.0824 5.27346 16.9943 5.40632 16.8833 5.51821C16.7722 5.6301 16.6403 5.71881 16.4952 5.77927C16.35 5.83974 16.1944 5.87076 16.0374 5.87056Z" fill="#FEF8F9"/>
<path d="M10.7426 6.73077C8.9557 6.73077 7.49744 8.19984 7.49744 10C7.49744 11.8002 8.9557 13.2692 10.7426 13.2692C12.5296 13.2692 13.9878 11.8002 13.9878 10C13.9878 8.19984 12.5296 6.73077 10.7426 6.73077Z" fill="#D47F7F"/>
</svg>
