<svg width="35" height="35" viewBox="0 0 21 21" fill="none" xmlns="http://www.w3.org/2000/svg">
<path fill-rule="evenodd" clip-rule="evenodd" d="M0.875 2.48325C0.875 2.05672 1.04444 1.64765 1.34605 1.34605C1.64765 1.04444 2.05672 0.875 2.48325 0.875H18.515C18.7264 0.874655 18.9357 0.916005 19.1311 0.996684C19.3265 1.07736 19.504 1.19578 19.6536 1.34517C19.8031 1.49456 19.9218 1.67197 20.0026 1.86726C20.0835 2.06255 20.1251 2.27187 20.125 2.48325V18.515C20.1252 18.7264 20.0838 18.9358 20.003 19.1312C19.9222 19.3266 19.8037 19.5041 19.6543 19.6536C19.5048 19.8032 19.3273 19.9218 19.132 20.0027C18.9367 20.0835 18.7273 20.1251 18.5159 20.125H2.48325C2.27198 20.125 2.06278 20.0834 1.8676 20.0025C1.67242 19.9216 1.49509 19.8031 1.34574 19.6536C1.19639 19.5042 1.07794 19.3268 0.99717 19.1316C0.916399 18.9364 0.874885 18.7271 0.875 18.5159V2.48325ZM8.4945 8.2145H11.1011V9.5235C11.4774 8.771 12.4399 8.09375 13.8862 8.09375C16.6591 8.09375 17.3162 9.59263 17.3162 12.3428V17.437H14.5101V12.9692C14.5101 11.403 14.1339 10.5193 13.1784 10.5193C11.8527 10.5193 11.3015 11.4721 11.3015 12.9692V17.437H8.4945V8.2145ZM3.682 17.3171H6.489V8.09375H3.682V17.3162V17.3171Z" fill="#D47F7F"/>
</svg>
