<svg width="40" height="40" viewBox="0 0 40 40" fill="none" xmlns="http://www.w3.org/2000/svg">
<path d="M2 0.5C1.17157 0.5 0.5 1.17157 0.5 2C0.5 2.82843 1.17157 3.5 2 3.5V0.5ZM30 3.5C30.8284 3.5 31.5 2.82843 31.5 2C31.5 1.17157 30.8284 0.5 30 0.5V3.5ZM2 7.5C1.17157 7.5 0.5 8.17157 0.5 9C0.5 9.82843 1.17157 10.5 2 10.5V7.5ZM20.5 10.5C21.3284 10.5 22 9.82843 22 9C22 8.17157 21.3284 7.5 20.5 7.5V10.5ZM2 15C1.17157 15 0.5 15.6716 0.5 16.5C0.5 17.3284 1.17157 18 2 18V15ZM24.5 18C25.3284 18 26 17.3284 26 16.5C26 15.6716 25.3284 15 24.5 15V18ZM2 3.5H30V0.5H2V3.5ZM2 10.5H20.5V7.5H2V10.5ZM2 18H24.5V15H2V18Z" fill="#D47F7F"/>
</svg>
